<svg width="154" height="60" viewBox="0 0 154 60" fill="none" xmlns="http://www.w3.org/2000/svg">
<rect width="154" height="60" fill="#2A5C70"/>
<path d="M39.36 12.896C40.56 12.896 41.648 13.176 42.624 13.736C43.616 14.28 44.392 15.056 44.952 16.064C45.512 17.056 45.792 18.216 45.792 19.544C45.792 20.872 45.512 22.04 44.952 23.048C44.392 24.04 43.616 24.816 42.624 25.376C41.648 25.92 40.56 26.192 39.36 26.192C37.584 26.192 36.232 25.632 35.304 24.512V26H31.728V8.192H35.472V14.456C36.416 13.416 37.712 12.896 39.36 12.896ZM38.712 23.12C39.672 23.12 40.456 22.8 41.064 22.16C41.688 21.504 42 20.632 42 19.544C42 18.456 41.688 17.592 41.064 16.952C40.456 16.296 39.672 15.968 38.712 15.968C37.752 15.968 36.96 16.296 36.336 16.952C35.728 17.592 35.424 18.456 35.424 19.544C35.424 20.632 35.728 21.504 36.336 22.16C36.96 22.8 37.752 23.12 38.712 23.12ZM53.2954 12.896C55.2954 12.896 56.8314 13.376 57.9034 14.336C58.9754 15.28 59.5114 16.712 59.5114 18.632V26H56.0074V24.392C55.3034 25.592 53.9914 26.192 52.0714 26.192C51.0794 26.192 50.2154 26.024 49.4794 25.688C48.7594 25.352 48.2074 24.888 47.8234 24.296C47.4394 23.704 47.2474 23.032 47.2474 22.28C47.2474 21.08 47.6954 20.136 48.5914 19.448C49.5034 18.76 50.9034 18.416 52.7914 18.416H55.7674C55.7674 17.6 55.5194 16.976 55.0234 16.544C54.5274 16.096 53.7834 15.872 52.7914 15.872C52.1034 15.872 51.4234 15.984 50.7514 16.208C50.0954 16.416 49.5354 16.704 49.0714 17.072L47.7274 14.456C48.4314 13.96 49.2714 13.576 50.2474 13.304C51.2394 13.032 52.2554 12.896 53.2954 12.896ZM53.0074 23.672C53.6474 23.672 54.2154 23.528 54.7114 23.24C55.2074 22.936 55.5594 22.496 55.7674 21.92V20.6H53.1994C51.6634 20.6 50.8954 21.104 50.8954 22.112C50.8954 22.592 51.0794 22.976 51.4474 23.264C51.8314 23.536 52.3514 23.672 53.0074 23.672ZM66.4759 14.792C66.9239 14.168 67.5239 13.696 68.2759 13.376C69.0439 13.056 69.9239 12.896 70.9159 12.896V16.352C70.4999 16.32 70.2199 16.304 70.0759 16.304C69.0039 16.304 68.1639 16.608 67.5559 17.216C66.9479 17.808 66.6439 18.704 66.6439 19.904V26H62.8999V13.088H66.4759V14.792ZM80.9901 12.896C82.5901 12.896 83.8781 13.376 84.8541 14.336C85.8461 15.296 86.3421 16.72 86.3421 18.608V26H82.5981V19.184C82.5981 18.16 82.3741 17.4 81.9261 16.904C81.4781 16.392 80.8301 16.136 79.9821 16.136C79.0381 16.136 78.2861 16.432 77.7261 17.024C77.1661 17.6 76.8861 18.464 76.8861 19.616V26H73.1421V13.088H76.7181V14.6C77.2141 14.056 77.8301 13.64 78.5661 13.352C79.3021 13.048 80.1101 12.896 80.9901 12.896ZM94.9438 12.896C96.9438 12.896 98.4798 13.376 99.5518 14.336C100.624 15.28 101.16 16.712 101.16 18.632V26H97.6558V24.392C96.9518 25.592 95.6398 26.192 93.7198 26.192C92.7278 26.192 91.8638 26.024 91.1278 25.688C90.4078 25.352 89.8558 24.888 89.4718 24.296C89.0878 23.704 88.8958 23.032 88.8958 22.28C88.8958 21.08 89.3438 20.136 90.2398 19.448C91.1518 18.76 92.5518 18.416 94.4398 18.416H97.4158C97.4158 17.6 97.1678 16.976 96.6718 16.544C96.1758 16.096 95.4318 15.872 94.4398 15.872C93.7518 15.872 93.0718 15.984 92.3998 16.208C91.7438 16.416 91.1838 16.704 90.7198 17.072L89.3758 14.456C90.0798 13.96 90.9198 13.576 91.8958 13.304C92.8878 13.032 93.9038 12.896 94.9438 12.896ZM94.6558 23.672C95.2958 23.672 95.8638 23.528 96.3598 23.24C96.8558 22.936 97.2078 22.496 97.4158 21.92V20.6H94.8478C93.3118 20.6 92.5438 21.104 92.5438 22.112C92.5438 22.592 92.7278 22.976 93.0958 23.264C93.4798 23.536 93.9998 23.672 94.6558 23.672ZM112.18 12.896C113.38 12.896 114.468 13.176 115.444 13.736C116.436 14.28 117.212 15.056 117.772 16.064C118.332 17.056 118.612 18.216 118.612 19.544C118.612 20.872 118.332 22.04 117.772 23.048C117.212 24.04 116.436 24.816 115.444 25.376C114.468 25.92 113.38 26.192 112.18 26.192C110.404 26.192 109.052 25.632 108.124 24.512V26H104.548V8.192H108.292V14.456C109.236 13.416 110.532 12.896 112.18 12.896ZM111.532 23.12C112.492 23.12 113.276 22.8 113.884 22.16C114.508 21.504 114.82 20.632 114.82 19.544C114.82 18.456 114.508 17.592 113.884 16.952C113.276 16.296 112.492 15.968 111.532 15.968C110.572 15.968 109.78 16.296 109.156 16.952C108.548 17.592 108.244 18.456 108.244 19.544C108.244 20.632 108.548 21.504 109.156 22.16C109.78 22.8 110.572 23.12 111.532 23.12ZM126.116 12.896C128.116 12.896 129.652 13.376 130.724 14.336C131.796 15.28 132.332 16.712 132.332 18.632V26H128.828V24.392C128.124 25.592 126.812 26.192 124.892 26.192C123.9 26.192 123.036 26.024 122.3 25.688C121.58 25.352 121.028 24.888 120.644 24.296C120.26 23.704 120.068 23.032 120.068 22.28C120.068 21.08 120.516 20.136 121.412 19.448C122.324 18.76 123.724 18.416 125.612 18.416H128.588C128.588 17.6 128.34 16.976 127.844 16.544C127.348 16.096 126.604 15.872 125.612 15.872C124.924 15.872 124.244 15.984 123.572 16.208C122.916 16.416 122.356 16.704 121.892 17.072L120.548 14.456C121.252 13.96 122.092 13.576 123.068 13.304C124.06 13.032 125.076 12.896 126.116 12.896ZM125.828 23.672C126.468 23.672 127.036 23.528 127.532 23.24C128.028 22.936 128.38 22.496 128.588 21.92V20.6H126.02C124.484 20.6 123.716 21.104 123.716 22.112C123.716 22.592 123.9 22.976 124.268 23.264C124.652 23.536 125.172 23.672 125.828 23.672ZM140.064 26.192C138.992 26.192 137.944 26.064 136.92 25.808C135.896 25.536 135.08 25.2 134.472 24.8L135.72 22.112C136.296 22.48 136.992 22.784 137.808 23.024C138.624 23.248 139.424 23.36 140.208 23.36C141.792 23.36 142.584 22.968 142.584 22.184C142.584 21.816 142.368 21.552 141.936 21.392C141.504 21.232 140.84 21.096 139.944 20.984C138.888 20.824 138.016 20.64 137.328 20.432C136.64 20.224 136.04 19.856 135.528 19.328C135.032 18.8 134.784 18.048 134.784 17.072C134.784 16.256 135.016 15.536 135.48 14.912C135.96 14.272 136.648 13.776 137.544 13.424C138.456 13.072 139.528 12.896 140.76 12.896C141.672 12.896 142.576 13 143.472 13.208C144.384 13.4 145.136 13.672 145.728 14.024L144.48 16.688C143.344 16.048 142.104 15.728 140.76 15.728C139.96 15.728 139.36 15.84 138.96 16.064C138.56 16.288 138.36 16.576 138.36 16.928C138.36 17.328 138.576 17.608 139.008 17.768C139.44 17.928 140.128 18.08 141.072 18.224C142.128 18.4 142.992 18.592 143.664 18.8C144.336 18.992 144.92 19.352 145.416 19.88C145.912 20.408 146.16 21.144 146.16 22.088C146.16 22.888 145.92 23.6 145.44 24.224C144.96 24.848 144.256 25.336 143.328 25.688C142.416 26.024 141.328 26.192 140.064 26.192Z" fill="white"/>
<path d="M105.272 45.936L103.472 47.712V51H99.728V33.192H103.472V43.272L108.944 38.088H113.408L108.032 43.56L113.888 51H109.352L105.272 45.936ZM115.478 38.088H119.222V51H115.478V38.088ZM117.35 36.288C116.662 36.288 116.102 36.088 115.67 35.688C115.238 35.288 115.022 34.792 115.022 34.2C115.022 33.608 115.238 33.112 115.67 32.712C116.102 32.312 116.662 32.112 117.35 32.112C118.038 32.112 118.598 32.304 119.03 32.688C119.462 33.072 119.678 33.552 119.678 34.128C119.678 34.752 119.462 35.272 119.03 35.688C118.598 36.088 118.038 36.288 117.35 36.288ZM127.041 51.192C125.969 51.192 124.921 51.064 123.897 50.808C122.873 50.536 122.057 50.2 121.449 49.8L122.697 47.112C123.273 47.48 123.969 47.784 124.785 48.024C125.601 48.248 126.401 48.36 127.185 48.36C128.769 48.36 129.561 47.968 129.561 47.184C129.561 46.816 129.345 46.552 128.913 46.392C128.481 46.232 127.817 46.096 126.921 45.984C125.865 45.824 124.993 45.64 124.305 45.432C123.617 45.224 123.017 44.856 122.505 44.328C122.009 43.8 121.761 43.048 121.761 42.072C121.761 41.256 121.993 40.536 122.457 39.912C122.937 39.272 123.625 38.776 124.521 38.424C125.433 38.072 126.505 37.896 127.737 37.896C128.649 37.896 129.553 38 130.449 38.208C131.361 38.4 132.113 38.672 132.705 39.024L131.457 41.688C130.321 41.048 129.081 40.728 127.737 40.728C126.937 40.728 126.337 40.84 125.937 41.064C125.537 41.288 125.337 41.576 125.337 41.928C125.337 42.328 125.553 42.608 125.985 42.768C126.417 42.928 127.105 43.08 128.049 43.224C129.105 43.4 129.969 43.592 130.641 43.8C131.313 43.992 131.897 44.352 132.393 44.88C132.889 45.408 133.137 46.144 133.137 47.088C133.137 47.888 132.897 48.6 132.417 49.224C131.937 49.848 131.233 50.336 130.305 50.688C129.393 51.024 128.305 51.192 127.041 51.192ZM139.791 51.192C138.719 51.192 137.671 51.064 136.647 50.808C135.623 50.536 134.807 50.2 134.199 49.8L135.447 47.112C136.023 47.48 136.719 47.784 137.535 48.024C138.351 48.248 139.151 48.36 139.935 48.36C141.519 48.36 142.311 47.968 142.311 47.184C142.311 46.816 142.095 46.552 141.663 46.392C141.231 46.232 140.567 46.096 139.671 45.984C138.615 45.824 137.743 45.64 137.055 45.432C136.367 45.224 135.767 44.856 135.255 44.328C134.759 43.8 134.511 43.048 134.511 42.072C134.511 41.256 134.743 40.536 135.207 39.912C135.687 39.272 136.375 38.776 137.271 38.424C138.183 38.072 139.255 37.896 140.487 37.896C141.399 37.896 142.303 38 143.199 38.208C144.111 38.4 144.863 38.672 145.455 39.024L144.207 41.688C143.071 41.048 141.831 40.728 140.487 40.728C139.687 40.728 139.087 40.84 138.687 41.064C138.287 41.288 138.087 41.576 138.087 41.928C138.087 42.328 138.303 42.608 138.735 42.768C139.167 42.928 139.855 43.08 140.799 43.224C141.855 43.4 142.719 43.592 143.391 43.8C144.063 43.992 144.647 44.352 145.143 44.88C145.639 45.408 145.887 46.144 145.887 47.088C145.887 47.888 145.647 48.6 145.167 49.224C144.687 49.848 143.983 50.336 143.055 50.688C142.143 51.024 141.055 51.192 139.791 51.192Z" fill="white"/>
</svg>
